<?xml version="1.0" encoding="UTF-8"?>
<svg version="1.1" xmlns="http://www.w3.org/2000/svg" width="512" height="512">
<path d="M0 0 C168.96 0 337.92 0 512 0 C512 168.96 512 337.92 512 512 C343.04 512 174.08 512 0 512 C0 343.04 0 174.08 0 0 Z " fill="#1AAFD0" transform="translate(0,0)"/>
<path d="M0 0 C1.25591949 -0.01575577 2.51183899 -0.03151154 3.80581665 -0.04774475 C5.1849352 -0.05501876 6.56405517 -0.062029 7.94317627 -0.06880188 C9.40565695 -0.08298291 10.86813064 -0.09789978 12.33059692 -0.11349487 C17.11969169 -0.16056966 21.908803 -0.18640283 26.69805908 -0.21064758 C28.35149429 -0.22006146 30.00492905 -0.22955598 31.65836334 -0.23913002 C38.53840635 -0.2775965 45.41843739 -0.31080895 52.29856491 -0.32950115 C62.13594382 -0.35629971 71.97200669 -0.41385885 81.80890918 -0.51526612 C88.73906995 -0.58425063 95.66888182 -0.61847878 102.59937787 -0.62706596 C106.73279039 -0.63305369 110.86484638 -0.65383702 114.99788666 -0.71162987 C118.88911332 -0.765223 122.77814047 -0.77545647 126.66965103 -0.75348473 C128.09103608 -0.752772 129.5125298 -0.7672443 130.93356705 -0.79869461 C138.19094212 -0.95036056 143.35939673 -0.68923614 148.93981934 4.23902893 C150.53609263 5.90197255 152.10653382 7.59006985 153.65118408 9.30107117 C155.29302686 10.9131666 156.94236169 12.51766337 158.59869385 14.11486816 C160.34915319 15.85648042 162.0969951 17.60072628 163.84259033 19.34721375 C164.81598225 20.317604 165.78957545 21.2877924 166.76335144 22.25779724 C169.37471195 24.86042745 171.98292047 27.46619318 174.59024048 30.07287049 C176.22230207 31.70421663 177.85507558 33.33484679 179.48809814 34.96523094 C185.19227262 40.66019663 190.89390226 46.35769556 196.59307861 52.05766296 C201.8975417 57.3627294 207.20758801 62.66216219 212.52021313 67.95905381 C217.09552545 72.52130011 221.66698388 77.08738376 226.23544788 81.65648764 C228.9583107 84.37960521 231.68269861 87.10115252 234.41098022 89.81884193 C236.96980773 92.3680014 239.52380746 94.92190006 242.07415962 97.47953796 C243.45634865 98.86327266 244.84348587 100.24205914 246.23075867 101.62069702 C247.05205765 102.44619049 247.87335663 103.27168396 248.71954346 104.12219238 C249.79238586 105.19421764 249.79238586 105.19421764 250.88690186 106.28789997 C253.65773411 109.44961616 254.89917928 112.0898716 254.9112463 116.30209255 C254.92184469 117.48810941 254.92184469 117.48810941 254.93265718 118.6980862 C254.9302421 119.56081254 254.92782701 120.42353888 254.92533875 121.31240845 C254.93057542 122.23362018 254.9358121 123.15483191 254.94120747 124.10395914 C254.95623776 127.19827124 254.9569133 130.2924184 254.95758057 133.38676453 C254.96520033 135.60268941 254.97362751 137.81861165 254.98280334 140.03453064 C255.00478092 146.06183901 255.01355233 152.08909662 255.01862979 158.11644053 C255.02227134 161.88419812 255.02851054 165.65194239 255.03563118 169.4196949 C255.05509422 179.86226392 255.07160147 190.30482495 255.07450771 200.74741268 C255.07469528 201.41564964 255.07488285 202.08388661 255.07507611 202.77237317 C255.07544235 204.12694649 255.07580605 205.4815198 255.07616722 206.83609312 C255.07635003 207.5084641 255.07653284 208.18083508 255.07672119 208.87358093 C255.07699202 209.8833772 255.07699202 209.8833772 255.07726831 210.91357339 C255.08080438 221.80395614 255.10778919 232.69414045 255.14521908 243.58445447 C255.18338693 254.77967672 255.20222568 265.97482663 255.20296723 277.17012125 C255.203759 283.44997485 255.21245125 289.72957281 255.24096489 296.00936699 C255.26721471 301.92329517 255.26931176 307.83675713 255.25330925 313.75071716 C255.25149993 315.91415998 255.25813841 318.07763 255.27412796 320.24101448 C255.37689391 335.05610269 254.92942556 348.08239669 243.96368408 359.35966492 C235.02117564 366.86714244 226.51975405 368.4506224 215.2205658 368.44824219 C214.27848874 368.45191888 213.33641169 368.45559556 212.36578685 368.45938367 C209.21311096 368.47038545 206.06046806 368.47425834 202.90777588 368.47807312 C200.64565934 368.48434027 198.38354383 368.49098729 196.12142944 368.49798584 C188.69776116 368.51899342 181.27409273 368.52938307 173.85040283 368.53935242 C171.29304303 368.54340078 168.73568333 368.54751773 166.17832375 368.5517025 C155.54179344 368.56856411 144.90526652 368.58320022 134.2687254 368.59045124 C131.51217841 368.59236095 128.75563143 368.59428132 125.99908447 368.59623718 C124.97146716 368.59696279 124.97146716 368.59696279 123.9230899 368.59770306 C112.82324067 368.60600495 101.72349914 368.63134857 90.62369695 368.66381786 C79.2159792 368.69691482 67.80834183 368.7145696 56.40057117 368.71809548 C50.0001825 368.72044612 43.59996435 368.72940925 37.1996212 368.75455666 C31.17903973 368.7778311 25.15874117 368.78207293 19.13812637 368.77179527 C16.93107602 368.77129971 14.72401175 368.7776262 12.51700401 368.79135132 C9.49858233 368.8090695 6.48117618 368.80196403 3.4627533 368.78881836 C2.16000215 368.80527223 2.16000215 368.80527223 0.8309328 368.8220585 C-8.62255712 368.72299756 -16.43327726 364.60254508 -23.34881592 358.30107117 C-32.03719956 349.1712454 -33.949526 338.46739209 -33.86347961 326.2522583 C-33.87042514 324.98134163 -33.87737067 323.71042497 -33.88452667 322.40099567 C-33.9030314 318.9029898 -33.89689166 315.40541081 -33.88637364 311.90738809 C-33.87934672 308.12336711 -33.89540588 304.33943078 -33.90837097 300.55543518 C-33.92995798 293.15402381 -33.92989775 285.75276652 -33.92174543 278.35133404 C-33.915433 272.33290083 -33.91659383 266.31451239 -33.9230175 260.29607964 C-33.92391916 259.43789735 -33.92482081 258.57971507 -33.92574979 257.69552727 C-33.92760108 255.9518659 -33.92946365 254.20820455 -33.93133735 252.46454322 C-33.94789733 236.13194572 -33.93921194 219.79943474 -33.92235177 203.46684247 C-33.90765622 188.54112997 -33.92228435 173.61561881 -33.95112193 158.68993223 C-33.98054958 143.3439357 -33.99147842 127.99803198 -33.98193973 112.65200847 C-33.98091724 110.91463182 -33.97992262 109.17725515 -33.97895622 107.43987846 C-33.97847983 106.58517358 -33.97800344 105.7304687 -33.97751262 104.84986367 C-33.97535294 98.84305513 -33.9851287 92.83633493 -33.99972725 86.82954597 C-34.01728616 79.50282097 -34.01708237 72.17635254 -33.99437559 64.84963746 C-33.98326555 61.1153509 -33.9799965 57.38151579 -33.9986763 53.64724922 C-34.01870933 49.59008724 -33.99962466 45.53401605 -33.977005 41.47686768 C-33.98884073 40.30924017 -34.00067646 39.14161266 -34.01287085 37.93860251 C-33.8852025 26.62870382 -30.34280381 17.39969417 -22.46209717 9.20732117 C-15.87256517 3.26334406 -8.96800976 0.0811828 0 0 Z " fill="#FDFEFE" transform="translate(145.34881591796875,71.69892883300781)"/>
<path d="M0 0 C5.02226039 2.36007256 8.60299929 6.33130189 12.453125 10.22265625 C13.15395203 10.9239415 13.85477905 11.62522675 14.57684326 12.34776306 C16.05165209 13.82558435 17.52403841 15.30582669 18.99414062 16.78833008 C21.25075778 19.06326393 23.51533515 21.33003372 25.78125 23.59570312 C27.21401559 25.03338202 28.64632338 26.47151732 30.078125 27.91015625 C30.75723938 28.59038345 31.43635376 29.27061066 32.13604736 29.97145081 C32.76049744 30.60228073 33.38494751 31.23311066 34.02832031 31.88305664 C34.8550827 32.71553673 34.8550827 32.71553673 35.69854736 33.56483459 C37.60093367 35.66267429 37.98925528 36.90544642 38.3125 39.75 C37.9148114 43.88596145 36.62359816 45.80913737 34 49 C31.2616056 51.22031978 29.24263742 51.94290884 25.8125 52.75 C19.75071671 51.55751804 16.24141758 47.29569532 12 43 C11.34 42.34 10.68 41.68 10 41 C9.99857498 41.67572052 9.99714996 42.35144104 9.99568176 43.04763794 C9.97597659 50.08848525 9.92168433 57.12846658 9.84741211 64.16894531 C9.82423273 66.79550969 9.80983658 69.42216701 9.80444336 72.04882812 C9.7951541 75.82741208 9.7541589 79.60453423 9.70703125 83.3828125 C9.71293022 85.14094772 9.71293022 85.14094772 9.71894836 86.93460083 C9.55644719 96.04024856 9.55644719 96.04024856 6.58081055 99.72607422 C3.28296959 102.63176817 1.55783379 103.22210831 -2.75 103.4375 C-3.59046875 103.49808594 -4.4309375 103.55867188 -5.296875 103.62109375 C-8.53072465 102.87805604 -10.4345901 101.50598114 -12.71936035 99.11921692 C-15.46963479 94.56803179 -14.7170824 89.09425305 -14.5859375 83.9453125 C-14.57744781 82.68862762 -14.56895813 81.43194275 -14.56021118 80.13717651 C-14.53237572 76.81204009 -14.47857809 73.48941781 -14.4119873 70.16497803 C-14.35036792 66.76645524 -14.32315476 63.3676716 -14.29296875 59.96875 C-14.22689529 53.31181011 -14.1265496 46.65605007 -14 40 C-15.29505238 41.11477147 -16.58753109 42.23253333 -17.87890625 43.3515625 C-18.59892822 43.97369629 -19.3189502 44.59583008 -20.06079102 45.23681641 C-22.10183824 47.00517806 -22.10183824 47.00517806 -23.9375 49.375 C-27.26883432 51.99968765 -30.83164051 52.31064031 -35 52 C-38.21577038 50.42134908 -40.17247175 49.05321778 -42.375 46.25 C-43.36570991 42.68344431 -43.82890785 39.60574914 -43 36 C-38.09095787 28.52862953 -30.3677816 22.2155857 -24.04614258 15.91577148 C-22.17085437 14.04590247 -20.30104535 12.17067101 -18.43164062 10.29492188 C-17.23990435 9.10384539 -16.04785845 7.9130786 -14.85546875 6.72265625 C-14.29715866 6.16232193 -13.73884857 5.60198761 -13.16362 5.02467346 C-8.58344062 0.47237557 -6.53940822 -0.44334971 0 0 Z " fill="#1CAFD0" transform="translate(259,187)"/>
<path d="M0 0 C0.86091248 -0.00569504 1.72182495 -0.01139008 2.60882568 -0.01725769 C5.44245515 -0.02833364 8.27375492 0.00365291 11.10717773 0.03735352 C13.08202341 0.04093207 15.05687425 0.04228773 17.03172302 0.04151917 C21.1651926 0.0462054 25.29787961 0.07100829 29.43115234 0.11132812 C34.72631885 0.16233129 40.02062708 0.17376972 45.31601048 0.17149258 C49.39186275 0.17230873 53.46752783 0.18876841 57.54331779 0.2104969 C59.49572268 0.22003459 61.44814873 0.22595391 63.40057564 0.22817802 C66.12939638 0.23469123 68.85731178 0.26096868 71.5859375 0.29296875 C72.39075058 0.29160919 73.19556366 0.29024963 74.02476501 0.28884888 C79.69416016 0.38594876 82.9320855 1.59093143 87.04077148 5.41625977 C88.81518196 8.87169068 89.10142888 12.00051629 88.22827148 15.72875977 C85.87027226 19.59943774 83.56432026 22.28341017 79.22827148 23.72875977 C76.47652715 23.84564224 73.74915973 23.90684981 70.99658203 23.92163086 C70.15722107 23.92980835 69.31786011 23.93798584 68.45306396 23.94641113 C65.67371329 23.97123568 62.89441355 23.9877729 60.11499023 24.00219727 C59.16539743 24.00752094 58.21580463 24.01284462 57.23743629 24.01832962 C52.21201001 24.04504739 47.18660847 24.06442739 42.16113281 24.07885742 C38.00270624 24.09220293 33.84476964 24.12006873 29.68652344 24.16088867 C24.66446255 24.21018787 19.64284651 24.234975 14.62055397 24.2420845 C12.70798703 24.24879893 10.7954301 24.26402598 8.88300133 24.28797531 C6.20418967 24.31961028 3.5270941 24.31966651 0.84814453 24.31225586 C0.06091507 24.32866119 -0.72631439 24.34506653 -1.53739929 24.36196899 C-5.58849844 24.31617883 -8.04644068 23.90388948 -11.24797058 21.31729126 C-14.4362947 18.04713714 -14.98664838 16.4303624 -15.20922852 11.97875977 C-15.26981445 11.13829102 -15.33040039 10.29782227 -15.39282227 9.43188477 C-13.51932623 1.27805295 -7.23176335 -0.15186662 0 0 Z " fill="#1DB0D0" transform="translate(219.771728515625,307.271240234375)"/>
<path d="M0 0 C0.66 0 1.32 0 2 0 C3.29740906 1.31617737 3.29740906 1.31617737 4.86206055 3.22875977 C9.98631136 9.24885344 15.61563524 14.7598182 21.20703125 20.33984375 C22.38065427 21.51414157 23.5541289 22.68858771 24.72746277 23.86317444 C27.17077455 26.30795138 29.61586312 28.75093312 32.06225586 31.19262695 C35.2007729 34.3254093 38.33472771 37.46271144 41.46739674 40.60134029 C43.88216512 43.01971398 46.29929982 45.4357112 48.71716881 47.85098457 C49.87456379 49.00771216 51.03121553 50.16518391 52.18711281 51.32340813 C53.79527222 52.93409761 55.40658532 54.54156322 57.01879883 56.14819336 C57.93478348 57.06338242 58.85076813 57.97857147 59.79450989 58.92149353 C61.81944399 61.02971407 61.81944399 61.02971407 64 62 C64 62.66 64 63.32 64 64 C42.88 64 21.76 64 0 64 C0 42.88 0 21.76 0 0 Z " fill="#1EB0D1" transform="translate(296,112)"/>
<path d="M0 0 C23.5 0 23.5 0 30.4375 4.625 C32.82770903 8.25811773 32.67689872 11.77521836 32 16 C30.5 18.4375 30.5 18.4375 29 20 C29 20.66 29 21.32 29 22 C29.66 22.515625 30.32 23.03125 31 23.5625 C33.61198771 26.74586002 33.520745 28.80213847 33.31640625 32.81640625 C32.86908721 35.9034599 32.06765728 37.65665509 30 40 C24.2533226 43.9747852 18.31634832 43.34000552 11.625 43.1875 C7.78875 43.125625 3.9525 43.06375 0 43 C0 28.81 0 14.62 0 0 Z " fill="#21B1D1" transform="translate(159,345)"/>
<path d="M0 0 C1.8871875 0.0309375 1.8871875 0.0309375 3.8125 0.0625 C3.8125 2.7025 3.8125 5.3425 3.8125 8.0625 C1.82682292 8.55078125 -0.15885417 9.0390625 -2.14453125 9.52734375 C-3.84433202 9.97260705 -5.52051954 10.50683985 -7.1875 11.0625 C-7.1875 12.3825 -7.1875 13.7025 -7.1875 15.0625 C-6.5275 14.7325 -5.8675 14.4025 -5.1875 14.0625 C-1.01316105 13.66112125 1.30801713 13.80055697 5.0625 15.75 C8.71265606 18.81944941 10.4917287 20.76363903 11.1640625 25.58203125 C11.46445407 31.36061653 10.91763599 35.15200426 7.296875 39.72265625 C3.73552632 42.93724203 0.59962841 43.35712625 -4.125 43.375 C-5.14464844 43.39175781 -6.16429687 43.40851563 -7.21484375 43.42578125 C-12.00842566 42.83996901 -14.31641617 41.05440197 -17.46875 37.46484375 C-19.7115791 33.02506161 -19.77945144 29.52524541 -19.6875 24.625 C-19.70296875 23.80451172 -19.7184375 22.98402344 -19.734375 22.13867188 C-19.69024849 15.22735719 -17.9425382 11.0131935 -13.15234375 5.8828125 C-12.48332031 5.32335937 -11.81429688 4.76390625 -11.125 4.1875 C-10.45339844 3.61257813 -9.78179687 3.03765625 -9.08984375 2.4453125 C-6.09666693 0.26957411 -3.58799588 -0.0588196 0 0 Z " fill="#1FB1D1" transform="translate(312.1875,344.9375)"/>
<path d="M0 0 C3.3 0 6.6 0 10 0 C10 8.58 10 17.16 10 26 C11.32 26 12.64 26 14 26 C14 28.64 14 31.28 14 34 C12.68 34 11.36 34 10 34 C10 36.97 10 39.94 10 43 C6.7 43 3.4 43 0 43 C0 40.03 0 37.06 0 34 C-5.61 34 -11.22 34 -17 34 C-17 24.99897348 -17 24.99897348 -14.55078125 21.30859375 C-14.03193359 20.50873047 -13.51308594 19.70886719 -12.97851562 18.88476562 C-12.42873047 18.07716797 -11.87894531 17.26957031 -11.3125 16.4375 C-10.78205078 15.62603516 -10.25160156 14.81457031 -9.70507812 13.97851562 C-8.65546718 12.38284942 -7.58688417 10.79948045 -6.49853516 9.22998047 C-4.98572194 7.05649086 -4.98572194 7.05649086 -3.84130859 4.85205078 C-2.73046875 2.91015625 -2.73046875 2.91015625 0 0 Z " fill="#22B2D1" transform="translate(344,345)"/>
<path d="M0 0 C3.27816167 1.62711674 5.3409074 3.68181481 7 7 C7.15344209 8.88472859 7.24959571 10.77427874 7.31640625 12.6640625 C7.35830078 13.78554688 7.40019531 14.90703125 7.44335938 16.0625 C7.48267578 17.238125 7.52199219 18.41375 7.5625 19.625 C7.60568359 20.80835938 7.64886719 21.99171875 7.69335938 23.2109375 C7.79967426 26.14050328 7.90170642 29.07015588 8 32 C4.7 32 1.4 32 -2 32 C-2 31.34 -2 30.68 -2 30 C-2.99 30.66 -3.98 31.32 -5 32 C-9.28906981 32.6905004 -13.98981182 33.20439846 -17.83203125 30.90234375 C-20.26203312 28.27626103 -21.01499017 25.91455601 -21.625 22.4375 C-20.84380508 18.14092793 -19.34762132 16.70997917 -16 14 C-13.35541621 12.67770811 -11.32238699 12.90322806 -8.375 12.9375 C-6.87066406 12.95103516 -6.87066406 12.95103516 -5.3359375 12.96484375 C-4.56507813 12.97644531 -3.79421875 12.98804688 -3 13 C-3.33 11.35 -3.66 9.7 -4 8 C-5.65 8 -7.3 8 -9 8 C-9.33 8.66 -9.66 9.32 -10 10 C-13.3 10 -16.6 10 -20 10 C-19.79861029 6.47568011 -18.98017112 4.9752139 -16.75 2.1875 C-11.94551496 -1.48583201 -5.69354817 -0.92484031 0 0 Z " fill="#20B1D1" transform="translate(217,356)"/>
<path d="M0 0 C3.00690904 1.51303066 4.82125933 3.27500286 6.77734375 5.98828125 C7.83984375 9.30078125 7.83984375 9.30078125 7.83984375 18.30078125 C1.23984375 18.30078125 -5.36015625 18.30078125 -12.16015625 18.30078125 C-8.90648705 23.53008968 -8.90648705 23.53008968 -5.22265625 23.73828125 C-2.23285703 23.31116708 0.11562975 22.58276431 2.83984375 21.30078125 C4.15984375 22.62078125 5.47984375 23.94078125 6.83984375 25.30078125 C5.83984375 28.30078125 5.83984375 28.30078125 3.52734375 29.98828125 C-2.88599955 32.27099666 -9.42967672 32.56850389 -15.66015625 29.67578125 C-20.27312709 25.29345895 -22.3971019 22.22724007 -22.59765625 15.80078125 C-22.33598417 9.57129758 -20.75643226 6.13649866 -16.66015625 1.42578125 C-11.90607965 -2.23758451 -5.48615368 -1.77580743 0 0 Z " fill="#20B1D1" transform="translate(281.16015625,356.69921875)"/>
<path d="M0 0 C3.0361795 1.78904464 3.87311151 3.1788115 4.78515625 6.56640625 C4.82640625 7.47390625 4.86765625 8.38140625 4.91015625 9.31640625 C3.45273162 9.39737428 1.99402818 9.45558399 0.53515625 9.50390625 C-0.27695313 9.53871094 -1.0890625 9.57351563 -1.92578125 9.609375 C-2.63992187 9.51269531 -3.3540625 9.41601562 -4.08984375 9.31640625 C-4.74984375 8.32640625 -5.40984375 7.33640625 -6.08984375 6.31640625 C-7.73984375 6.64640625 -9.38984375 6.97640625 -11.08984375 7.31640625 C-11.08984375 8.30640625 -11.08984375 9.29640625 -11.08984375 10.31640625 C-10.43757812 10.4865625 -9.7853125 10.65671875 -9.11328125 10.83203125 C1.31831952 13.72456952 1.31831952 13.72456952 4.91015625 17.31640625 C5.6516726 20.45626455 5.59841267 23.1700912 4.91015625 26.31640625 C2.71184261 29.348563 1.46052431 30.13295023 -2.08984375 31.31640625 C-14.54297897 32.48025066 -14.54297897 32.48025066 -18.83984375 29.12890625 C-21.07001487 26.34119235 -21.88845404 24.84072614 -22.08984375 21.31640625 C-20.63241912 21.23543822 -19.17371568 21.17722851 -17.71484375 21.12890625 C-16.90273437 21.09410156 -16.090625 21.05929687 -15.25390625 21.0234375 C-14.53976563 21.12011719 -13.825625 21.21679688 -13.08984375 21.31640625 C-12.42984375 22.30640625 -11.76984375 23.29640625 -11.08984375 24.31640625 C-8.00618504 24.56662195 -8.00618504 24.56662195 -5.08984375 24.31640625 C-5.08984375 23.32640625 -5.08984375 22.33640625 -5.08984375 21.31640625 C-5.99347656 21.001875 -6.89710938 20.68734375 -7.828125 20.36328125 C-9.00761719 19.9353125 -10.18710938 19.50734375 -11.40234375 19.06640625 C-12.57410156 18.64875 -13.74585938 18.23109375 -14.953125 17.80078125 C-18.15395289 16.28606818 -19.41813786 15.3841332 -21.08984375 12.31640625 C-21.58984375 8.87890625 -21.58984375 8.87890625 -21.08984375 5.31640625 C-15.58972312 -1.34163451 -8.29843693 -2.71444199 0 0 Z " fill="#1EB0D1" transform="translate(250.08984375,356.68359375)"/>
<path d="M0 0 C0.33 0 0.66 0 1 0 C1 12.21 1 24.42 1 37 C-11.21 37 -23.42 37 -36 37 C-33.34232363 35.22821575 -31.33980212 34.35253376 -28.375 33.3125 C-16.68584993 28.70149612 -8.26701587 19.57081014 -3 8.34375 C-1.83222598 5.60677964 -0.82754194 2.85878126 0 0 Z " fill="#47704C" transform="translate(511,475)"/>
<path d="M0 0 C1.77178425 2.65767637 2.64746624 4.66019788 3.6875 7.625 C8.29850388 19.31415007 17.42918986 27.73298413 28.65625 33 C31.39322036 34.16777402 34.14121874 35.17245806 37 36 C37 36.33 37 36.66 37 37 C24.79 37 12.58 37 0 37 C0 24.79 0 12.58 0 0 Z " fill="#47704C" transform="translate(0,475)"/>
<path d="M0 0 C12.21 0 24.42 0 37 0 C37 12.21 37 24.42 37 37 C35.22821575 34.34232363 34.35253376 32.33980212 33.3125 29.375 C28.70149612 17.68584993 19.57081014 9.26701587 8.34375 4 C5.60677964 2.83222598 2.85878126 1.82754194 0 1 C0 0.67 0 0.34 0 0 Z " fill="#47704C" transform="translate(475,0)"/>
<path d="M0 0 C12.21 0 24.42 0 37 0 C34.34232363 1.77178425 32.33980212 2.64746624 29.375 3.6875 C17.68584993 8.29850388 9.26701587 17.42918986 4 28.65625 C2.83222598 31.39322036 1.82754194 34.14121874 1 37 C0.67 37 0.34 37 0 37 C0 24.79 0 12.58 0 0 Z " fill="#47704C" transform="translate(0,0)"/>
<path d="M0 0 C1.8125 1 1.8125 1 3 3 C3.55003751 6.616685 3.71020228 9.80386985 1.8125 13 C-0.72586735 14.40047854 -2.15092341 14.56981532 -5 14 C-7.54845071 11.10003885 -7.98352223 9.16203137 -8.375 5.3125 C-8.25125 4.219375 -8.1275 3.12625 -8 2 C-4.76746204 -0.15502531 -3.74849077 -0.46856135 0 0 Z " fill="#F2FAFC" transform="translate(310,367)"/>
<path d="M0 0 C1.60875 -0.04125 3.2175 -0.0825 4.875 -0.125 C5.77992188 -0.14820313 6.68484375 -0.17140625 7.6171875 -0.1953125 C10 0 10 0 12 2 C12.25 5 12.25 5 12 8 C10 10 10 10 7.6171875 10.1953125 C6.71226562 10.17210937 5.80734375 10.14890625 4.875 10.125 C2.461875 10.063125 2.461875 10.063125 0 10 C0 6.7 0 3.4 0 0 Z " fill="#F7FCFD" transform="translate(170,370)"/>
<path d="M0 0 C8.625 -0.25 8.625 -0.25 12 2 C12.3125 5 12.3125 5 12 8 C10 10 10 10 7.6171875 10.1953125 C6.71226562 10.17210937 5.80734375 10.14890625 4.875 10.125 C2.461875 10.063125 2.461875 10.063125 0 10 C0 6.7 0 3.4 0 0 Z " fill="#E7F6FA" transform="translate(169,353)"/>
<path d="M0 0 C6.6 0 13.2 0 20 0 C20 0.33 20 0.66 20 1 C18.8553125 1.1546875 18.8553125 1.1546875 17.6875 1.3125 C14.77908957 2.05651197 13.92670112 2.79805587 12 5 C9.15916359 6.42041821 7.14522722 6.31452272 4 6 C1.625 4.125 1.625 4.125 0 2 C0 1.34 0 0.68 0 0 Z " fill="#E5F6F9" transform="translate(269,375)"/>
<path d="M0 0 C0.33 0 0.66 0 1 0 C1 4.29 1 8.58 1 13 C-1.64 13 -4.28 13 -7 13 C-5.37621488 8.27626146 -2.89006982 4.05818166 0 0 Z " fill="#D1EFF5" transform="translate(343,359)"/>
<path d="M0 0 C1.66611905 -0.042721 3.33382885 -0.04063832 5 0 C6 1 6 1 6.0625 3.5625 C6.041875 4.366875 6.02125 5.17125 6 6 C3.36 6 0.72 6 -2 6 C-2 5.34 -2 4.68 -2 4 C-4.97 4 -7.94 4 -11 4 C-11 3.67 -11 3.34 -11 3 C-7.7 3 -4.4 3 -1 3 C-0.67 2.01 -0.34 1.02 0 0 Z " fill="#E8F7FA" transform="translate(208,363)"/>
<path d="M0 0 C0.94875 0.04125 1.8975 0.0825 2.875 0.125 C2.91754356 2.12454746 2.91580783 4.12541636 2.875 6.125 C1.875 7.125 1.875 7.125 -1.1875 7.1875 C-2.156875 7.166875 -3.12625 7.14625 -4.125 7.125 C-4.75 4.75 -4.75 4.75 -5.125 2.125 C-3.125 0.125 -3.125 0.125 0 0 Z " fill="#F3FBFC" transform="translate(211.125,373.875)"/>
<path d="M0 0 C2.5625 0.1875 2.5625 0.1875 4.5625 2.1875 C4.5625 3.5075 4.5625 4.8275 4.5625 6.1875 C1.2625 6.1875 -2.0375 6.1875 -5.4375 6.1875 C-3.15091463 0.24237805 -3.15091463 0.24237805 0 0 Z " fill="#E6F6FA" transform="translate(274.4375,362.8125)"/>
</svg>
